<svg xmlns="http://www.w3.org/2000/svg" xmlns:xlink="http://www.w3.org/1999/xlink" width="32" height="15" viewBox="0 0 32 15">
  <defs>
    <clipPath id="clip-path">
      <rect id="Rectangle_3748" data-name="Rectangle 3748" width="32" height="15" transform="translate(-0.477 -0.208)" fill="#000000"/>
    </clipPath>
  </defs>
  <g id="infin" transform="translate(0.477 0.207)" clip-path="url(#clip-path)">
    <g id="Vector_Smart_Object1" data-name="Vector Smart Object1" transform="translate(-0.138 0.057)">
      <path id="Path_6" data-name="Path 6" d="M19.149,47.777c.59.548,1.174,1.1,1.791,1.6a14.177,14.177,0,0,0,1.9,1.374,9.284,9.284,0,0,0,1.013.513,5.559,5.559,0,0,0,1.043.318,4.923,4.923,0,0,0,.523.075c.087.01.174.005.26.009a1.9,1.9,0,0,0,.261,0c.178-.018.356-.021.531-.047s.349-.059.519-.1a5.282,5.282,0,0,0,3.956-6.2,5.016,5.016,0,0,0-2.085-3.123,4.845,4.845,0,0,0-1.712-.721c-.154-.021-.3-.062-.458-.072s-.313-.028-.459-.027-.281,0-.424.027-.285.036-.43.08a8.99,8.99,0,0,0-3.492,2.085c-1.136.976-2.23,2.1-3.344,3.253s-2.268,2.319-3.569,3.418A16.24,16.24,0,0,1,12.85,51.77a8.711,8.711,0,0,1-2.619,1.076,6.34,6.34,0,0,1-1.512.142,7.312,7.312,0,0,1-1.452-.2,7.193,7.193,0,0,1-2.625-1.228A7.325,7.325,0,0,1,3.079,41.337,6.98,6.98,0,0,1,5.118,39.5a6.719,6.719,0,0,1,2.54-.877,6.826,6.826,0,0,1,1.327-.034l.165.008.168.023.335.05a5.814,5.814,0,0,1,.646.174,7.04,7.04,0,0,1,2.229,1.26,17.945,17.945,0,0,1,3.244,3.648c-.591-.547-1.176-1.1-1.795-1.6a13.953,13.953,0,0,0-1.909-1.365,6.5,6.5,0,0,0-2.059-.812,1.7,1.7,0,0,0-.262-.04l-.261-.03-.26,0-.129,0-.134.011a5.485,5.485,0,0,0-1.048.158A5.277,5.277,0,0,0,4.021,46.3a5.014,5.014,0,0,0,2.112,3.1,4.849,4.849,0,0,0,1.716.7,4.624,4.624,0,0,0,.913.089,3.6,3.6,0,0,0,.854-.117,9.124,9.124,0,0,0,3.49-2.107c1.137-.978,2.229-2.11,3.344-3.258s2.269-2.32,3.578-3.415a16.255,16.255,0,0,1,2.135-1.529A8.583,8.583,0,0,1,24.8,38.712a7.443,7.443,0,0,1,.748-.108c.252-.027.513-.015.768-.017s.487.046.73.07.478.093.716.142a7.212,7.212,0,0,1,2.612,1.254,7.321,7.321,0,0,1,1.466,10.236,6.96,6.96,0,0,1-2.054,1.818,6.7,6.7,0,0,1-2.547.853c-.221.025-.445.029-.665.044s-.442-.015-.662-.023a2.8,2.8,0,0,1-.334-.038c-.111-.018-.224-.029-.333-.055a5.266,5.266,0,0,1-.643-.18,6.658,6.658,0,0,1-1.183-.545,8.5,8.5,0,0,1-1.033-.731,18.218,18.218,0,0,1-3.234-3.655" transform="translate(-1.661 -38.57)" fill="#000000"/>
    </g>
  </g>
</svg>
